/* XPM */
static char * ecoin32_xpm[] = {
"32 32 573 2",
"  	c None",
". 	c #171717",
"+ 	c #171716",
"@ 	c #161617",
"# 	c #161616",
"$ 	c #161715",
"% 	c #151517",
"& 	c #141616",
"* 	c #141414",
"= 	c #151515",
"- 	c #161615",
"; 	c #171615",
"> 	c #171617",
", 	c #0D0F13",
"' 	c #101015",
") 	c #332F15",
"! 	c #5B4D1A",
"~ 	c #665A1A",
"{ 	c #685D1C",
"] 	c #5E5119",
"^ 	c #3F3717",
"/ 	c #161515",
"( 	c #0D0E15",
"_ 	c #161717",
": 	c #171616",
"< 	c #0E0F14",
"[ 	c #413A18",
"} 	c #A99320",
"| 	c #EAC725",
"1 	c #FCD925",
"2 	c #FFD623",
"3 	c #FFD423",
"4 	c #FFD422",
"5 	c #FFD522",
"6 	c #F4CB24",
"7 	c #BB9F1E",
"8 	c #5B4F18",
"9 	c #111113",
"0 	c #141516",
"a 	c #101116",
"b 	c #373118",
"c 	c #CBAE1F",
"d 	c #FFD824",
"e 	c #FCD324",
"f 	c #FBCC20",
"g 	c #F5BD1C",
"h 	c #F4B619",
"i 	c #F4B316",
"j 	c #F4B417",
"k 	c #F5B617",
"l 	c #F4BA18",
"m 	c #FBC61F",
"n 	c #FCCE1F",
"o 	c #FFD220",
"p 	c #E6BF1E",
"q 	c #584C18",
"r 	c #171718",
"s 	c #0E0F12",
"t 	c #7E6E1C",
"u 	c #FED624",
"v 	c #FDD123",
"w 	c #F8C21E",
"x 	c #F0AC14",
"y 	c #F2AD13",
"z 	c #F8BE1C",
"A 	c #FBCE20",
"B 	c #FCCE20",
"C 	c #FECD1F",
"D 	c #FCCC21",
"E 	c #F9C31C",
"F 	c #F2B116",
"G 	c #F2AD17",
"H 	c #F7BB1A",
"I 	c #FCCB1E",
"J 	c #FFD11E",
"K 	c #AD911B",
"L 	c #0F1014",
"M 	c #A68E1D",
"N 	c #FFD321",
"O 	c #FBCD22",
"P 	c #F1A711",
"Q 	c #F5B819",
"R 	c #FCC91C",
"S 	c #FEC418",
"T 	c #FCC015",
"U 	c #FDBF14",
"V 	c #65521C",
"W 	c #63511E",
"X 	c #FDBF15",
"Y 	c #FCC115",
"Z 	c #FDC418",
"` 	c #FDC91A",
" .	c #F9BE1B",
"..	c #F1AD17",
"+.	c #FBC41D",
"@.	c #FEC91C",
"#.	c #D4AE1B",
"$.	c #191914",
"%.	c #161816",
"&.	c #0D0F14",
"*.	c #9C861E",
"=.	c #FFD123",
"-.	c #F9C71E",
";.	c #EEA411",
">.	c #FBC91D",
",.	c #FCC116",
"'.	c #FDBE14",
").	c #DDA716",
"!.	c #8A6C1A",
"~.	c #352A0D",
"{.	c #2E250D",
"].	c #FCBE14",
"^.	c #91721D",
"/.	c #DFA813",
"(.	c #FDC016",
"_.	c #FCC519",
":.	c #F5B31B",
"<.	c #F8BE19",
"[.	c #FEC71D",
"}.	c #D2AA19",
"|.	c #161516",
"1.	c #161716",
"2.	c #151415",
"3.	c #60551A",
"4.	c #FFD221",
"5.	c #FAC91E",
"6.	c #FABE15",
"7.	c #F9BB13",
"8.	c #7E641C",
"9.	c #010101",
"0.	c #806419",
"a.	c #33290B",
"b.	c #2C230C",
"c.	c #866919",
"d.	c #000000",
"e.	c #715919",
"f.	c #FABC15",
"g.	c #F5B71C",
"h.	c #FEC618",
"i.	c #A08316",
"j.	c #0F1115",
"k.	c #1E1D13",
"l.	c #F3CA20",
"m.	c #EEA410",
"n.	c #FCC91D",
"o.	c #886B1D",
"p.	c #664E0D",
"q.	c #FBBD16",
"r.	c #6B5417",
"s.	c #020200",
"t.	c #010100",
"u.	c #695215",
"v.	c #FCBD14",
"w.	c #53410E",
"x.	c #7E631B",
"y.	c #FBC217",
"z.	c #F5B521",
"A.	c #FAC117",
"B.	c #FFCA18",
"C.	c #443814",
"D.	c #8E791A",
"E.	c #FECC1D",
"F.	c #F2B015",
"G.	c #F0BC1C",
"H.	c #CC9E1C",
"I.	c #4B3B10",
"J.	c #130F05",
"K.	c #F6BA16",
"L.	c #FDBE15",
"M.	c #735A17",
"N.	c #715916",
"O.	c #F5B815",
"P.	c #070705",
"Q.	c #3E300C",
"R.	c #F8BB14",
"S.	c #C6981A",
"T.	c #F8BE18",
"U.	c #F5B621",
"V.	c #FDC214",
"W.	c #CFA415",
"X.	c #0D0E14",
"Y.	c #161613",
"Z.	c #F1C31E",
"`.	c #FCCA1C",
" +	c #F1A912",
".+	c #AB891D",
"++	c #020202",
"@+	c #58430C",
"#+	c #8A6B18",
"$+	c #030303",
"%+	c #D09F1B",
"&+	c #FCBD13",
"*+	c #2B220C",
"=+	c #29210C",
"-+	c #DBA515",
";+	c #92731F",
">+	c #5B460E",
",+	c #040402",
"'+	c #AE881E",
")+	c #F9BD1E",
"!+	c #FBBC19",
"~+	c #FFC515",
"{+	c #3D3313",
"]+	c #171715",
"^+	c #4B4016",
"/+	c #FFCE1B",
"(+	c #F4B213",
"_+	c #F8BC18",
":+	c #EAB419",
"<+	c #735912",
"[+	c #0C0A04",
"}+	c #060503",
"|+	c #8E6F1B",
"1+	c #FBBC14",
"2+	c #372B0D",
"3+	c #90711D",
"4+	c #070604",
"5+	c #0D0B04",
"6+	c #715812",
"7+	c #E4AB14",
"8+	c #FCC214",
"9+	c #F8BA21",
"0+	c #FDBF12",
"a+	c #947716",
"b+	c #111215",
"c+	c #131315",
"d+	c #957C18",
"e+	c #FDC81C",
"f+	c #F2A911",
"g+	c #FCC71B",
"h+	c #F5BB19",
"i+	c #C09112",
"j+	c #67531C",
"k+	c #030200",
"l+	c #171205",
"m+	c #A67F17",
"n+	c #F4B815",
"o+	c #362B0D",
"p+	c #F3B715",
"q+	c #A67F14",
"r+	c #181307",
"s+	c #6A5621",
"t+	c #BD8F12",
"u+	c #F3B716",
"v+	c #FDBE13",
"w+	c #F9BC28",
"x+	c #FCBB0E",
"y+	c #CA9B11",
"z+	c #0D0F16",
"A+	c #BD9818",
"B+	c #FEC619",
"C+	c #F2A70E",
"D+	c #806315",
"E+	c #050503",
"F+	c #141003",
"G+	c #3E310E",
"H+	c #644D0E",
"I+	c #3D300C",
"J+	c #030302",
"K+	c #473911",
"L+	c #CB9A18",
"M+	c #33280B",
"N+	c #2B220B",
"O+	c #CB9A16",
"P+	c #483912",
"Q+	c #3A2E0C",
"R+	c #3E310F",
"S+	c #161105",
"T+	c #644E12",
"U+	c #FCBE11",
"V+	c #F8BD26",
"W+	c #FDBA12",
"X+	c #F3B70E",
"Y+	c #111214",
"Z+	c #171618",
"`+	c #0C0D16",
" @	c #CDA518",
".@	c #FCC416",
"+@	c #F2A50F",
"@@	c #D8A620",
"#@	c #B48A1A",
"$@	c #E5AD17",
"%@	c #9B7817",
"&@	c #161103",
"*@	c #0B0902",
"=@	c #060502",
"-@	c #181304",
";@	c #9E7A19",
">@	c #E7B01A",
",@	c #BA8F1D",
"'@	c #DEAA1D",
")@	c #FABE22",
"!@	c #FAB915",
"~@	c #FFBF0E",
"{@	c #1D1B13",
"]@	c #0B0D15",
"^@	c #D1A717",
"/@	c #FCC215",
"(@	c #F3A40E",
"_@	c #FDC317",
":@	c #D7A419",
"<@	c #1F1B0E",
"[@	c #181408",
"}@	c #D6A218",
"|@	c #FDBD13",
"1@	c #FCBD12",
"2@	c #FBBC13",
"3@	c #FBBE21",
"4@	c #FBB915",
"5@	c #FFC00C",
"6@	c #201D14",
"7@	c #171816",
"8@	c #0C0E16",
"9@	c #C69C15",
"0@	c #FCC113",
"a@	c #F1A60D",
"b@	c #FEC216",
"c@	c #D5A31B",
"d@	c #C89815",
"e@	c #E4AC16",
"f@	c #EDB214",
"g@	c #F5B813",
"h@	c #EEB314",
"i@	c #B18717",
"j@	c #2B220A",
"k@	c #0F0C02",
"l@	c #060501",
"m@	c #040301",
"n@	c #100D03",
"o@	c #282009",
"p@	c #AF8617",
"q@	c #EEB315",
"r@	c #E5AD16",
"s@	c #CF9D15",
"t@	c #D8A214",
"u@	c #FCBC0F",
"v@	c #FABF25",
"w@	c #FCB612",
"x@	c #FFBA0C",
"y@	c #171613",
"z@	c #181717",
"A@	c #101217",
"B@	c #A88713",
"C@	c #FDC014",
"D@	c #F3A80F",
"E@	c #FDC315",
"F@	c #856817",
"G@	c #050401",
"H@	c #2F2711",
"I@	c #4B3A0E",
"J@	c #88670E",
"K@	c #4D3C0E",
"L@	c #382C0B",
"M@	c #B68B18",
"N@	c #34290C",
"O@	c #BA8E18",
"P@	c #392D0B",
"Q@	c #87660F",
"R@	c #4B3B0F",
"S@	c #312913",
"T@	c #070601",
"U@	c #6E5515",
"V@	c #FCBA0D",
"W@	c #FBC12F",
"X@	c #FBB209",
"Y@	c #DCA40C",
"Z@	c #0E0F15",
"`@	c #151617",
" #	c #725D14",
".#	c #FFC214",
"+#	c #FBBB13",
"@#	c #EAB117",
"##	c #9F7B19",
"$#	c #4F3F14",
"%#	c #0D0B03",
"&#	c #8E6D14",
"*#	c #FCBE17",
"=#	c #8D6C13",
"-#	c #544418",
";#	c #9E7918",
">#	c #E8AC13",
",#	c #FCB80A",
"'#	c #F9BF2B",
")#	c #FBB105",
"!#	c #AE800D",
"~#	c #252115",
"{#	c #FDBF11",
"]#	c #FBB70F",
"^#	c #F6AF11",
"/#	c #957113",
"(#	c #271F09",
"_#	c #0E0B02",
":#	c #8A6C19",
"<#	c #91721F",
"[#	c #0F0C03",
"}#	c #2C230A",
"|#	c #987313",
"1#	c #F0B010",
"2#	c #FABA16",
"3#	c #FBBB22",
"4#	c #FFB704",
"5#	c #675010",
"6#	c #C89A10",
"7#	c #FDBB0E",
"8#	c #F2A210",
"9#	c #A47F18",
"0#	c #070602",
"a#	c #4A390C",
"b#	c #7B5F17",
"c#	c #D19F1A",
"d#	c #F7BA17",
"e#	c #2C230B",
"f#	c #271F0B",
"g#	c #DCA615",
"h#	c #7B611C",
"i#	c #47360B",
"j#	c #0A0802",
"k#	c #AA7E17",
"l#	c #FCC430",
"m#	c #FCAE04",
"n#	c #EDAB08",
"o#	c #443714",
"p#	c #FFBF0C",
"q#	c #FBB50E",
"r#	c #ECA614",
"s#	c #B48815",
"t#	c #FDBC11",
"u#	c #554211",
"v#	c #151105",
"w#	c #F7BA16",
"x#	c #8B6C18",
"y#	c #020201",
"z#	c #836617",
"A#	c #F2B616",
"B#	c #090804",
"C#	c #4F3E10",
"D#	c #AD7F10",
"E#	c #FCBB1D",
"F#	c #FAB81E",
"G#	c #FFB106",
"H#	c #85630C",
"I#	c #121315",
"J#	c #0F1116",
"K#	c #AC8410",
"L#	c #FEB70B",
"M#	c #F8AD0F",
"N#	c #F7B312",
"O#	c #FDBA0F",
"P#	c #705714",
"Q#	c #624B0F",
"R#	c #EEB416",
"S#	c #816517",
"T#	c #7D6219",
"U#	c #ECB215",
"V#	c #FCBD15",
"W#	c #4E3D0E",
"X#	c #FCB60C",
"Y#	c #FBB70E",
"Z#	c #FCC132",
"`#	c #FBAC03",
" $	c #E5A108",
".$	c #141614",
"+$	c #191915",
"@$	c #E5AA0B",
"#$	c #FCB409",
"$$	c #F7AB11",
"%$	c #F9B214",
"&$	c #FCB80E",
"*$	c #F7B611",
"=$	c #FDBB11",
"-$	c #9D7819",
";$	c #6E5614",
">$	c #32270B",
",$	c #28200B",
"'$	c #725915",
")$	c #94731A",
"!$	c #F5B713",
"~$	c #FBB80E",
"{$	c #FBB710",
"]$	c #FAC133",
"^$	c #FBAB03",
"/$	c #FCAF06",
"($	c #3D3111",
"_$	c #151616",
":$	c #2D2513",
"<$	c #F1AF0A",
"[$	c #FDB206",
"}$	c #F9AE10",
"|$	c #F7AF19",
"1$	c #FCB70C",
"2$	c #FDB70C",
"3$	c #C6900D",
"4$	c #765811",
"5$	c #785D16",
"6$	c #C79615",
"7$	c #FCB90F",
"8$	c #FCB40A",
"9$	c #FBBD21",
"0$	c #FBBD2D",
"a$	c #FBAA01",
"b$	c #FFB004",
"c$	c #5D470E",
"d$	c #121317",
"e$	c #2A2413",
"f$	c #E4A50A",
"g$	c #FCB106",
"h$	c #FCB008",
"i$	c #F7AE1B",
"j$	c #F9B41B",
"k$	c #FDB50B",
"l$	c #FCB507",
"m$	c #FCB60B",
"n$	c #634E16",
"o$	c #604C17",
"p$	c #FDB90E",
"q$	c #FCB50A",
"r$	c #FCB509",
"s$	c #FBBC1B",
"t$	c #FABF32",
"u$	c #FBB114",
"v$	c #FCA901",
"w$	c #FAAC04",
"x$	c #573E10",
"y$	c #111316",
"z$	c #A77A0D",
"A$	c #FFB405",
"B$	c #FDAE04",
"C$	c #FCAD07",
"D$	c #F9B01A",
"E$	c #F8B525",
"F$	c #FAB61F",
"G$	c #FBB81D",
"H$	c #FBB91D",
"I$	c #FBB921",
"J$	c #FABD2B",
"K$	c #FCBA2A",
"L$	c #FCAE0F",
"M$	c #FCA701",
"N$	c #FFAF01",
"O$	c #CC8F07",
"P$	c #2A2213",
"Q$	c #121617",
"R$	c #3B2F10",
"S$	c #B8820B",
"T$	c #FCAF04",
"U$	c #FFAF03",
"V$	c #FDAB01",
"W$	c #FCAA03",
"X$	c #FBAA03",
"Y$	c #FDA904",
"Z$	c #FAA803",
"`$	c #FDA900",
" %	c #FFAC01",
".%	c #FFAD01",
"+%	c #D18F07",
"@%	c #5A430E",
"#%	c #0E1016",
"$%	c #0D1016",
"%%	c #231E13",
"&%	c #5F4511",
"*%	c #9A7008",
"=%	c #CE8E07",
"-%	c #DB9A03",
";%	c #DD9A04",
">%	c #D49106",
",%	c #AA7808",
"'%	c #6C4D0D",
")%	c #312812",
"!%	c #0A0F17",
"~%	c #0E1215",
"{%	c #0F1117",
"]%	c #0F1316",
"^%	c #151516",
". . . . . . . . . . . . . + . . . . . . . . . . . . . . . . . . ",
". . . . . . . . . . . @ # $ % & * = - ; # . + . . . . . . . . . ",
". . . . . . . . @ > . , ' ) ! ~ { ] ^ / ( _ _ : + . . . . . . . ",
". . . . . . + # ; < [ } | 1 2 3 3 4 5 6 7 8 9 0 # . . . . . . . ",
". . . . # # + a b c d e f g h i j k l m n o p q < r : . . . . . ",
". . . . # > s t u v w x y z A B C D E F G H I J K = > . . . . . ",
". . . > $ L M N O P Q R S T U V W X Y Z `  ...+.@.#.$.%.# . . . ",
". . + # &.*.=.-.;.>.,.'.).!.'.~.{.].^./.'.(._.:.<.[.}.|.: 1.. . ",
". + % 2.3.4.5.;.I 6.7.'.8.9.0.a.b.c.d.e.'.7.f.Z g. .h.i.j.# : . ",
". # - k.l.f m.n.(.o.p.'.q.r.d.s.t.d.u.'.v.w.x.v.y.z.A.B.C._ @ . ",
". > j.D.E.F.G.H.'.I.J.K.'.L.M.9.9.N.'.'.O.P.Q.R.S.T.U.V.W.X.# 1.",
". ; Y.Z.`. +.+++@+#+$+%+'.&+'.*+=+&+'.'.-+d.;+>+,+'+)+!+~+{+]+# ",
"# - ^+/+(+_+:+<+[+}+d.|+1+'.'.2+{.'.'.1+3+d.4+5+6+7+8+9+0+a+b+@ ",
"- c+d+e+f+g+h+i+j+d.k+l+m+n+&+o+{.'.p+q+r+k+9.s+t+u+v+w+x+y+( @ ",
"# z+A+B+C+B+D+E+F+G+H+I+J+K+L+M+N+O+P+9.Q+H+R+S+E+T+U+V+W+X+Y+Z+",
"# `+ @.@+@Z @@#@$@].'.'.%@&@$+*@=@++-@;@'.'.'.>@,@'@].)@!@~@{@. ",
"+ ]@^@/@(@_@'.'.'.].'.'.'.:@<@d.d.[@}@'.'.'.'.'.|@1@2@3@4@5@6@7@",
"# 8@9@0@a@b@c@d@e@f@g@h@i@j@k@l@m@n@o@p@q@g@f@r@s@t@u@v@w@x@y@z@",
". A@B@C@D@E@F@G@H@I@J@K@9.L@M@N@b.O@P@J+K@Q@R@S@T@U@V@W@X@Y@Z@. ",
"`@0  #.#D@+#@###$#d.9.%#&#L.'.o+{.'.*#=#5+9.d.-#;#>#,#'#)#!#Z@# ",
"_ . ~#{#]#^#h@/#(#_#d.:#'.'.'.o+{.'.'.'.<#d.[#}#|#1#2#3#4#5## # ",
"_ `@&.6#7#8#9#0#a#b#9.c#'.'.d#e#f#d#'.'.g#d.h#i#j#k#l#m#n#/ # + ",
". # # o#p#q#r#s#t#u#v#w#'.u+x#9.y#z#A#'.K.B#C#t#D#E#F#G#H#I## . ",
". # = J#K#L#M#N#O#P#Q#&+R#S#9.l@m@++T#U#V#W#Q#X#Y#Z#`# $.$: # . ",
". # 1.: +$@$#$$$%$&$*$=$-$++;$>$,$'$$+)$|@!$~${$]$^$/$($_$+ . . ",
". . @ # # :$<$[$}$|$1$2$3$4$t#o+{.&+5$6$7$8$9$0$a$b$c$d$@ @ . . ",
". . . # @ = e$f$g$h$i$j$k$l$m$n$o$p$q$r$s$t$u$v$w$x$y$> . . . . ",
". . . . : _ = = z$A$B$C$D$E$F$G$H$I$J$K$L$M$N$O$P$Q$1.. . . . . ",
". . . . . 1.1.; J#R$S$T$U$V$W$X$Y$Z$`$ %.%+%@%#%# > . . . . . . ",
". . . . . . # # # _ $%%%&%*%=%-%;%>%,%'%)%!%# > 1.. . . . . . . ",
". . . . . . . . . . . + # I#$%~%{%$%]%^%+ + . . . . . . . . . . ",
". . . . . . . . . . . . # _$# 1._$# @ - # . . . . . . . . . . . "};
